# xmcd
#
# Track frame offsets:
#	150
#	16054
#	30581
#	52917
#	67876
#
# Disc length: 1090 seconds
#
# Revision: 0
# Processed by: cddbd v1.4PL0 Copyright (c) Steve Scherf et al.
# Submitted via: dBpowerAMP V4.0
#
DISCID=2e044005
DTITLE=Pretty Mountain´s - Hold me close
DYEAR=1900
DGENRE=
TTITLE0=Hold me close
TTITLE1=alice
TTITLE2=dont know much
TTITLE3=silvias mother
TTITLE4=stærk tobak
EXTD=Pretty mountain`s
EXTT0=
EXTT1=
EXTT2=
EXTT3=
EXTT4=
PLAYORDER=
